<svg xmlns="http://www.w3.org/2000/svg" width="178" height="214" viewBox="0 0 178 214" fill="none">
  <path d="M3.00005 33.8695C17.8292 32.7632 60.0703 29.0585 67.763 53.6096C70.964 63.8253 70.2876 79.5062 64.5528 88.1688C52.2375 106.772 20.342 94.901 37.9288 71.5437C47.7918 58.4444 67.7394 61.5808 81.8497 64.0177C102.649 67.6099 115.941 81.9643 128.946 99.7651C135.55 108.805 157.949 157.615 154.891 156.817" stroke="#3461FF" stroke-width="5" stroke-linecap="round"/>
  <path d="M170.672 175.761C167.545 174.819 143.761 166.756 146.572 168.157C150.252 169.991 154.193 171.47 157.674 173.789C161.792 176.534 166.4 178.117 170.246 181.33C173.621 184.15 172.232 160.102 171.133 156" stroke="#3461FF" stroke-width="5" stroke-linecap="round"/>
</svg>