<svg width="118" height="64" viewBox="0 0 118 64" fill="none" xmlns="http://www.w3.org/2000/svg">
<g id="Walmart_Index_Only.svg" clip-path="url(#clip0_2_145)">
<path id="Vector" d="M68.0557 34.9478C68.0557 32.1827 66.8721 29.7397 62.8691 29.7397C60.8153 29.7397 59.1839 30.3251 58.2993 30.8374L58.9477 33.0557C59.762 32.5448 61.0616 32.124 62.288 32.124C64.3146 32.1212 64.6466 33.2676 64.6466 34.0046V34.1821C60.2228 34.1749 57.4264 35.7035 57.4264 38.8163C57.4264 40.7183 58.8461 42.5016 61.3277 42.5016C62.8419 42.5016 64.1213 41.8904 64.8857 40.9258H64.9601C64.9601 40.9258 65.4639 43.034 68.2503 42.2281C68.1086 41.3451 68.0557 40.4149 68.0557 39.2843V34.9478ZM64.7554 37.8674C64.7554 38.0907 64.7369 38.3226 64.671 38.5215C64.4162 39.3731 63.5375 40.0857 62.444 40.0857C61.521 40.0857 60.7968 39.5633 60.7968 38.4684C60.7968 36.794 62.6458 36.3332 64.7554 36.3447" fill="#050038"/>
<path id="Vector_2" d="M0.328125 25.9781C0.328125 25.9781 3.21765 37.7996 3.67707 39.7146C4.21805 41.9529 5.18696 42.7802 7.98349 42.2292L9.78962 34.8987C10.2462 33.0825 10.5567 31.7802 10.8516 29.9296H10.9016C11.1063 31.7987 11.4011 33.0825 11.7747 34.9044C11.7747 34.9044 12.5117 38.2348 12.8939 39.9794C13.2659 41.724 14.3135 42.8246 17.0571 42.2292L21.3564 25.9781H17.8857L16.4102 33.0081C16.0196 35.0447 15.6646 36.649 15.3884 38.5153H15.3383C15.0893 36.669 14.773 35.1305 14.3666 33.1354L12.838 25.9781H9.21717L7.5856 32.9522C7.12045 35.0819 6.6854 36.7893 6.41203 38.5968H6.36482C6.08288 36.9009 5.70077 34.7412 5.2957 32.6919C5.2957 32.6919 4.3268 27.6985 3.98478 25.9781" fill="#050038"/>
<path id="Vector_3" d="M31.0278 34.9478C31.0278 32.1827 29.8413 29.7397 25.8383 29.7397C23.7903 29.7397 22.156 30.3251 21.2715 30.8374L21.9197 33.0557C22.7313 32.5448 24.0293 32.124 25.2601 32.124C27.2867 32.1212 27.6186 33.2676 27.6186 34.0046V34.1821C23.195 34.1749 20.3956 35.7035 20.3956 38.8163C20.3956 40.7183 21.821 42.5016 24.2912 42.5016C25.8197 42.5016 27.0877 41.8904 27.852 40.9258H27.9293C27.9293 40.9258 28.4359 43.034 31.2195 42.2281C31.0765 41.3451 31.0278 40.4149 31.0278 39.2843V34.9478ZM27.7246 37.8674C27.7246 38.0907 27.7061 38.3226 27.643 38.5215C27.3853 39.3731 26.5067 40.0857 25.4105 40.0857C24.493 40.0857 23.766 39.5633 23.766 38.4684C23.766 36.794 25.615 36.3332 27.7246 36.3447" fill="#050038"/>
<path id="Vector_4" d="M32.8289 25.9781V42.2234H36.1321V38.7786V25.9781H32.8289Z" fill="#050038"/>
<path id="Vector_5" d="M78.1932 25.9781V37.9643C78.1932 39.6187 78.5037 40.7723 79.172 41.4792C79.7589 42.0989 80.7191 42.5025 81.8626 42.5025C82.8445 42.5025 83.8047 42.3136 84.2584 42.149L84.2184 39.5686C83.8792 39.6473 83.4914 39.7146 82.9589 39.7146C81.8312 39.7146 81.4591 39.0004 81.4591 37.5148V32.9265H84.3357V29.8222H81.4591V25.9781" fill="#050038"/>
<path id="Vector_6" d="M69.6561 30.0215V42.228H73.0709V35.9766C73.0709 35.6403 73.0922 35.3497 73.1453 35.0806C73.4 33.7625 74.4005 32.9282 75.8416 32.9282C76.2438 32.9282 76.5172 32.9726 76.8206 33.0198V29.8196C76.5658 29.7739 76.3926 29.7495 76.0792 29.7495C74.8011 29.7495 73.3528 30.5609 72.7417 32.3285H72.6573V30.0215" fill="#050038"/>
<path id="Vector_7" d="M38.0506 30.0215V42.228H41.378V35.0635C41.378 34.7272 41.4152 34.3837 41.534 34.0731C41.8045 33.3475 42.4757 32.5074 43.5534 32.5074C44.8929 32.5074 45.5256 33.638 45.5256 35.2695V42.228H48.8445V34.9777C48.8445 34.6613 48.8889 34.2734 48.9818 33.9929C49.2481 33.17 49.9751 32.5074 50.9799 32.5074C52.3337 32.5074 52.9893 33.6137 52.9893 35.5373V42.228H56.3051V35.0306C56.3051 31.2494 54.3817 29.7495 52.1977 29.7495C51.2375 29.7495 50.4732 29.9856 49.7862 30.4093C49.2052 30.7656 48.6957 31.268 48.2391 31.9249H48.1891C47.6638 30.6111 46.4301 29.7495 44.8185 29.7495C42.752 29.7495 41.8131 30.7928 41.2607 31.6745H41.2106V30.0215" fill="#050038"/>
<path id="Vector_8" d="M102.207 29.4739C102.86 29.4739 103.409 29.1333 103.481 28.6953L104.128 21.3676C104.128 20.6421 103.274 20.0481 102.207 20.0481C101.135 20.0481 100.287 20.6421 100.287 21.3676L100.939 28.6953C101.008 29.1333 101.555 29.4739 102.207 29.4739Z" fill="#050038"/>
<path id="Vector_9" d="M98.2378 31.7669C98.5612 31.1944 98.5426 30.559 98.1935 30.2755L92.1538 26.0523C91.5255 25.6859 90.5853 26.1224 90.0472 27.0469C89.5104 27.97 89.6192 29.0061 90.2347 29.3653L96.921 32.4653C97.349 32.6256 97.9086 32.3279 98.2378 31.7612" fill="#050038"/>
<path id="Vector_10" d="M106.175 31.761C106.517 32.3278 107.077 32.6255 107.493 32.4738L114.18 29.3653C114.801 28.9989 114.894 27.9727 114.369 27.0496C113.832 26.125 112.886 25.6914 112.259 26.0506L106.218 30.2698C105.883 30.5575 105.859 31.1957 106.182 31.7668" fill="#050038"/>
<path id="Vector_11" d="M102.207 38.6267C102.86 38.6267 103.409 38.9674 103.481 39.4053L104.128 46.7329C104.128 47.4586 103.274 48.0467 102.207 48.0467C101.135 48.0467 100.287 47.4586 100.287 46.7329L100.939 39.4053C101.008 38.9674 101.555 38.6267 102.207 38.6267Z" fill="#050038"/>
<path id="Vector_12" d="M106.175 36.341C106.517 35.7728 107.077 35.4693 107.493 35.634L114.18 38.7368C114.801 39.0959 114.894 40.1307 114.369 41.0552C113.832 41.9726 112.886 42.4091 112.259 42.05L106.218 37.8251C105.883 37.5403 105.859 36.9048 106.182 36.341" fill="#050038"/>
<path id="Vector_13" d="M98.2378 36.3349C98.5612 36.9059 98.5426 37.5399 98.1935 37.8262L92.1538 42.0438C91.5255 42.4102 90.5853 41.9722 90.0472 41.0549C89.5104 40.1318 89.6192 39.0956 90.2347 38.7364L96.921 35.6336C97.349 35.4704 97.9086 35.7709 98.2378 36.3349Z" fill="#050038"/>
<path id="Vector_14" d="M116.136 41.4064H116.219C116.332 41.4064 116.378 41.4422 116.391 41.5324C116.415 41.6326 116.428 41.6999 116.452 41.7284H116.667C116.648 41.707 116.624 41.6526 116.611 41.5267C116.587 41.4179 116.531 41.3563 116.452 41.3348V41.3148C116.561 41.2906 116.624 41.2175 116.624 41.1274C116.624 41.0458 116.587 40.9871 116.55 40.9499C116.478 40.9155 116.409 40.8883 116.258 40.8883C116.123 40.8883 116.024 40.8998 115.946 40.9185V41.7284H116.136V41.4064ZM116.142 41.0372L116.239 41.0243C116.354 41.0243 116.415 41.0772 116.415 41.1516C116.415 41.2347 116.332 41.2734 116.226 41.2734H116.142V41.0372ZM116.263 40.4877C115.794 40.4877 115.422 40.8541 115.422 41.3034C115.422 41.7643 115.794 42.1307 116.263 42.1307C116.739 42.1307 117.099 41.7643 117.099 41.3034C117.099 40.8541 116.739 40.4877 116.263 40.4877ZM116.263 40.6522C116.624 40.6522 116.892 40.9442 116.892 41.3034C116.892 41.6655 116.624 41.966 116.263 41.9603C115.903 41.9603 115.629 41.6655 115.629 41.3034C115.629 40.9442 115.903 40.6522 116.258 40.6522" fill="#050038"/>
</g>
<defs>
<clipPath id="clip0_2_145">
<rect width="117.328" height="63.9972" fill="white" transform="translate(0.328125 0.00146484)"/>
</clipPath>
</defs>
</svg>
