<svg width="424" height="189" viewBox="0 0 424 189" fill="none" xmlns="http://www.w3.org/2000/svg">
<rect width="424" height="189" fill="white"/>
<path d="M139.46 42.2727V115H126.605V42.2727H139.46ZM151.679 115V60.4545H164.534V115H151.679ZM158.142 52.7131C156.106 52.7131 154.355 52.0384 152.887 50.6889C151.419 49.3158 150.685 47.6705 150.685 45.7528C150.685 43.8116 151.419 42.1662 152.887 40.8168C154.355 39.4437 156.106 38.7571 158.142 38.7571C160.202 38.7571 161.954 39.4437 163.398 40.8168C164.866 42.1662 165.6 43.8116 165.6 45.7528C165.6 47.6705 164.866 49.3158 163.398 50.6889C161.954 52.0384 160.202 52.7131 158.142 52.7131ZM189.609 83.0398V115H176.754V60.4545H189.04V69.723H189.68C190.934 66.669 192.935 64.2424 195.681 62.4432C198.451 60.6439 201.872 59.7443 205.944 59.7443C209.708 59.7443 212.987 60.5492 215.781 62.1591C218.598 63.7689 220.776 66.1009 222.315 69.1548C223.877 72.2088 224.647 75.9138 224.623 80.2699V115H211.768V82.2585C211.768 78.6127 210.821 75.7599 208.927 73.7003C207.057 71.6406 204.464 70.6108 201.15 70.6108C198.901 70.6108 196.9 71.108 195.148 72.1023C193.42 73.0729 192.059 74.4815 191.065 76.3281C190.094 78.1747 189.609 80.4119 189.609 83.0398ZM263.928 60.4545V70.3977H232.572V60.4545H263.928ZM240.313 47.3864H253.168V98.5938C253.168 100.322 253.429 101.648 253.95 102.571C254.494 103.471 255.204 104.086 256.08 104.418C256.956 104.749 257.927 104.915 258.992 104.915C259.797 104.915 260.531 104.856 261.194 104.737C261.88 104.619 262.401 104.512 262.756 104.418L264.923 114.467C264.236 114.704 263.254 114.964 261.975 115.249C260.72 115.533 259.182 115.698 257.359 115.746C254.139 115.84 251.239 115.355 248.658 114.29C246.078 113.201 244.03 111.52 242.515 109.247C241.023 106.974 240.29 104.134 240.313 100.724V47.3864ZM301.307 60.4545V70.3977H269.063V60.4545H301.307ZM277.124 115V55.3054C277.124 51.6359 277.882 48.5819 279.397 46.1435C280.935 43.705 282.995 41.8821 285.576 40.6747C288.156 39.4673 291.021 38.8636 294.169 38.8636C296.395 38.8636 298.372 39.0412 300.1 39.3963C301.828 39.7514 303.106 40.071 303.935 40.3551L301.378 50.2983C300.834 50.1326 300.147 49.9669 299.319 49.8011C298.49 49.6117 297.567 49.517 296.549 49.517C294.158 49.517 292.465 50.0971 291.471 51.2571C290.5 52.3935 290.015 54.027 290.015 56.1577V115H277.124ZM323.23 42.2727V115H310.375V42.2727H323.23ZM343.439 135.455C341.687 135.455 340.065 135.313 338.574 135.028C337.106 134.768 335.934 134.46 335.058 134.105L338.041 124.091C339.911 124.635 341.58 124.896 343.048 124.872C344.516 124.848 345.806 124.387 346.919 123.487C348.055 122.611 349.014 121.143 349.795 119.084L350.896 116.136L331.116 60.4545H344.753L357.324 101.648H357.892L370.499 60.4545H384.17L362.331 121.605C361.313 124.493 359.964 126.967 358.283 129.027C356.602 131.11 354.542 132.696 352.104 133.786C349.689 134.898 346.801 135.455 343.439 135.455Z" fill="black"/>
<path fill-rule="evenodd" clip-rule="evenodd" d="M20 74.6889V74.5348C32.1296 66.3498 47.3966 56.8337 66.9299 45.2098C80.4584 37.2348 93.2838 29.4641 95.48 27.8282C98.2159 26.0257 101.285 25 103.477 25C105.014 25 106.119 25.5051 106.373 26.6013C107.339 30.0776 102.42 37.6437 89.243 53.3893C74.1333 71.5889 74.2214 71.9979 90.8243 66.4766C103.211 62.5914 110.326 63.2048 111.644 68.3171C112.434 71.5889 112.083 73.2248 109.008 79.564C106.988 83.6537 102.42 90.8109 98.7306 95.3096C95.1285 99.8084 92.2302 103.694 92.3175 103.898C92.4033 104.097 112.39 97.1128 121.215 92.2147C98.3983 105.194 84.393 115.447 72.3767 127.21C62.4503 137.025 61.8346 137.435 59.8145 134.163C58.6726 132.527 57.7063 129.868 57.7063 128.232C57.7063 126.801 64.3822 118.622 73.3431 109.419C93.5472 88.5615 107.954 71.5889 108.482 67.9081C108.833 65.4542 107.779 65.2498 102.86 66.2722C94.777 68.1126 82.7426 73.0203 73.0796 78.5415C65.2614 83.0403 65.1733 83.2448 63.2405 91.8334C62.1861 96.7411 60.8687 103.489 60.2537 107.17C59.4632 112.078 59.1118 112.896 58.8482 110.237C58.5847 108.192 59.2875 101.24 60.3416 94.9007C61.9227 84.8807 62.0108 82.4268 61.0444 78.337C60.0781 73.8382 60.1659 73.0203 62.7137 68.1126C65.612 62.1824 68.8626 49.2995 67.4575 49.2995C65.9034 49.2995 38.491 63.1111 20 74.6889ZM122.787 91.3075V91.3239C122.485 91.4944 122.184 91.6644 121.885 91.8339C121.886 91.8337 121.886 91.8335 121.886 91.8334C122.184 91.6595 122.484 91.4842 122.787 91.3075ZM121.885 91.8339C121.67 91.9593 121.446 92.0863 121.215 92.2147C121.437 92.088 121.661 91.9611 121.885 91.8339ZM73.1669 57.4792C73.6065 57.4792 91.1757 40.3021 95.48 35.3943C104.177 25.9878 102.595 26.6013 76.5056 42.9604C73.255 45.0053 72.9035 45.8232 72.9916 51.3444C73.0241 52.5513 73.0446 53.7026 73.0619 54.675C73.0915 56.3388 73.1118 57.4792 73.1669 57.4792Z" fill="#3461FF"/>
<ellipse cx="158" cy="45.5" rx="8" ry="7.5" fill="#3461FF"/>
</svg>
