<svg width="445" height="204" viewBox="0 0 445 204" fill="none" xmlns="http://www.w3.org/2000/svg">
<rect width="445" height="204" fill="#02033B"/>
<path d="M150.46 49.2727V122H137.605V49.2727H150.46ZM162.679 122V67.4545H175.534V122H162.679ZM169.142 59.7131C167.106 59.7131 165.355 59.0384 163.887 57.6889C162.419 56.3158 161.685 54.6705 161.685 52.7528C161.685 50.8116 162.419 49.1662 163.887 47.8168C165.355 46.4437 167.106 45.7571 169.142 45.7571C171.202 45.7571 172.954 46.4437 174.398 47.8168C175.866 49.1662 176.6 50.8116 176.6 52.7528C176.6 54.6705 175.866 56.3158 174.398 57.6889C172.954 59.0384 171.202 59.7131 169.142 59.7131ZM200.609 90.0398V122H187.754V67.4545H200.04V76.723H200.68C201.934 73.669 203.935 71.2424 206.681 69.4432C209.451 67.6439 212.872 66.7443 216.944 66.7443C220.708 66.7443 223.987 67.5492 226.781 69.1591C229.598 70.7689 231.776 73.1009 233.315 76.1548C234.877 79.2088 235.647 82.9138 235.623 87.2699V122H222.768V89.2585C222.768 85.6127 221.821 82.7599 219.927 80.7003C218.057 78.6406 215.464 77.6108 212.15 77.6108C209.901 77.6108 207.9 78.108 206.148 79.1023C204.42 80.0729 203.059 81.4815 202.065 83.3281C201.094 85.1747 200.609 87.4119 200.609 90.0398ZM274.928 67.4545V77.3977H243.572V67.4545H274.928ZM251.313 54.3864H264.168V105.594C264.168 107.322 264.429 108.648 264.95 109.571C265.494 110.471 266.204 111.086 267.08 111.418C267.956 111.749 268.927 111.915 269.992 111.915C270.797 111.915 271.531 111.856 272.194 111.737C272.88 111.619 273.401 111.512 273.756 111.418L275.923 121.467C275.236 121.704 274.254 121.964 272.975 122.249C271.72 122.533 270.182 122.698 268.359 122.746C265.139 122.84 262.239 122.355 259.658 121.29C257.078 120.201 255.03 118.52 253.515 116.247C252.023 113.974 251.29 111.134 251.313 107.724V54.3864ZM312.307 67.4545V77.3977H280.063V67.4545H312.307ZM288.124 122V62.3054C288.124 58.6359 288.882 55.5819 290.397 53.1435C291.935 50.705 293.995 48.8821 296.576 47.6747C299.156 46.4673 302.021 45.8636 305.169 45.8636C307.395 45.8636 309.372 46.0412 311.1 46.3963C312.828 46.7514 314.106 47.071 314.935 47.3551L312.378 57.2983C311.834 57.1326 311.147 56.9669 310.319 56.8011C309.49 56.6117 308.567 56.517 307.549 56.517C305.158 56.517 303.465 57.0971 302.471 58.2571C301.5 59.3935 301.015 61.027 301.015 63.1577V122H288.124ZM334.23 49.2727V122H321.375V49.2727H334.23ZM354.439 142.455C352.687 142.455 351.065 142.313 349.574 142.028C348.106 141.768 346.934 141.46 346.058 141.105L349.041 131.091C350.911 131.635 352.58 131.896 354.048 131.872C355.516 131.848 356.806 131.387 357.919 130.487C359.055 129.611 360.014 128.143 360.795 126.084L361.896 123.136L342.116 67.4545H355.753L368.324 108.648H368.892L381.499 67.4545H395.17L373.331 128.605C372.313 131.493 370.964 133.967 369.283 136.027C367.602 138.11 365.542 139.696 363.104 140.786C360.689 141.898 357.801 142.455 354.439 142.455Z" fill="white"/>
<ellipse cx="169" cy="52.5" rx="8" ry="7.5" fill="#3461FF"/>
<path fill-rule="evenodd" clip-rule="evenodd" d="M28 77.6889V77.5348C40.1296 69.3498 55.3966 59.8337 74.9299 48.2098C88.4584 40.2348 101.284 32.4641 103.48 30.8282C106.216 29.0257 109.285 28 111.477 28C113.014 28 114.119 28.5051 114.373 29.6013C115.339 33.0776 110.42 40.6437 97.243 56.3893C82.1333 74.5889 82.2214 74.9979 98.8243 69.4766C111.211 65.5914 118.326 66.2048 119.644 71.3171C120.434 74.5889 120.083 76.2248 117.008 82.564C114.988 86.6537 110.42 93.8109 106.731 98.3096C103.129 102.808 100.23 106.694 100.317 106.898C100.403 107.097 120.39 100.113 129.215 95.2147C106.398 108.194 92.393 118.447 80.3767 130.21C70.4503 140.025 69.8346 140.435 67.8145 137.163C66.6726 135.527 65.7063 132.868 65.7063 131.232C65.7063 129.801 72.3822 121.622 81.3431 112.419C101.547 91.5615 115.954 74.5889 116.482 70.9081C116.833 68.4542 115.779 68.2498 110.86 69.2722C102.777 71.1126 90.7426 76.0203 81.0796 81.5415C73.2614 86.0403 73.1733 86.2448 71.2405 94.8334C70.1861 99.7411 68.8687 106.489 68.2537 110.17C67.4632 115.078 67.1118 115.896 66.8482 113.237C66.5847 111.192 67.2875 104.24 68.3416 97.9007C69.9227 87.8807 70.0108 85.4268 69.0444 81.337C68.0781 76.8382 68.1659 76.0203 70.7137 71.1126C73.612 65.1824 76.8626 52.2995 75.4575 52.2995C73.9034 52.2995 46.491 66.1111 28 77.6889ZM130.787 94.3075V94.3239C130.485 94.4944 130.184 94.6644 129.885 94.8339C129.886 94.8337 129.886 94.8335 129.886 94.8334C130.184 94.6595 130.484 94.4842 130.787 94.3075ZM129.885 94.8339C129.67 94.9593 129.446 95.0863 129.215 95.2147C129.437 95.088 129.661 94.9611 129.885 94.8339ZM81.1669 60.4792C81.6065 60.4792 99.1757 43.3021 103.48 38.3943C112.177 28.9878 110.595 29.6013 84.5056 45.9604C81.255 48.0053 80.9035 48.8232 80.9916 54.3444C81.0241 55.5513 81.0446 56.7026 81.0619 57.675C81.0915 59.3388 81.1118 60.4792 81.1669 60.4792Z" fill="#3461FF"/>
</svg>
