<svg width="322" height="279" viewBox="0 0 322 279" fill="none" xmlns="http://www.w3.org/2000/svg">
<g id="sparkle">
<path id="Vector" d="M95.7854 122.724C97.9374 124.022 100.083 125.328 102.197 126.694C103.325 127.404 104.451 128.131 105.624 128.763C111.887 132.129 118.195 135.422 124.376 138.941C128.171 141.125 131.943 143.349 135.693 145.612L141.306 149.024L146.879 152.498C147.989 153.231 149.037 154.051 150.013 154.952C150.43 155.303 150.756 155.748 150.965 156.251C151.174 156.755 151.259 157.301 151.214 157.846C151.123 159.357 149.74 160.174 148.056 159.535C146.971 159.093 145.947 158.516 145.007 157.819C142.837 156.273 140.608 154.825 138.321 153.476C136.038 152.119 133.7 150.856 131.306 149.687C129.985 149.04 128.566 148.442 127.442 147.549C123.848 144.699 119.714 142.683 115.916 140.151C113.092 138.271 110.121 136.603 107.237 134.806L99.5174 130.008C96.9355 128.424 94.391 126.774 91.8124 125.18C90.8258 124.531 89.8837 123.817 88.9921 123.044C88.1673 122.292 87.3854 121.494 86.6499 120.654C85.9976 119.913 86.3716 119.374 87.4771 119.62C89.0622 119.976 90.6195 120.442 92.1376 121.015C92.7613 121.25 93.374 121.522 93.9748 121.819C94.5619 122.141 95.1512 122.464 95.7369 122.784L95.7854 122.724Z" fill="#407BFF"/>
<path id="Vector_2" d="M148.587 71.864L150.273 74.5979L151.893 77.3767C152.469 78.358 153.047 79.3444 153.704 80.2715C154.577 81.5106 155.465 82.7388 156.359 83.9633L159.017 87.6505L164.346 95.0105L170.885 104.089L177.474 113.132C178.116 114.067 178.69 115.046 179.191 116.064C179.414 116.473 179.537 116.928 179.551 117.395C179.565 117.861 179.47 118.325 179.273 118.75C178.755 119.934 177.419 120.167 176.254 119.142C175.512 118.459 174.862 117.683 174.32 116.833C171.781 113.023 169.001 109.379 165.999 105.922C165.107 105.015 164.323 104.008 163.662 102.921C161.804 99.4314 159.265 96.3972 157.212 93.0429C155.689 90.5503 153.985 88.164 152.448 85.6755C149.724 81.2272 147.046 76.7552 144.533 72.1851C143.56 70.4605 142.881 68.5847 142.523 66.6338C142.367 65.7898 142.958 65.4852 143.675 66.129C144.694 67.059 145.651 68.0551 146.538 69.1109C147.255 69.9974 147.919 70.926 148.525 71.8918L148.587 71.864Z" fill="#3461FF"/>
<path id="Vector_3" d="M216.386 59.7722C216.323 61.633 216.251 63.4945 216.171 65.3568C216.086 66.3439 216.06 67.3347 216.092 68.3239C216.236 70.955 216.439 73.5834 216.641 76.2099C216.84 78.8367 217.022 81.4624 217.162 84.0893C217.341 87.324 217.486 90.5596 217.638 93.7948L218.041 103.503C218.043 104.499 217.924 105.491 217.685 106.46C217.49 107.399 216.677 108.051 215.59 108.495C214.007 109.143 212.253 108.711 211.771 107.417C211.491 106.582 211.388 105.696 211.468 104.816C211.693 100.829 211.447 96.8334 210.736 92.9118C210.542 91.8233 210.252 90.6929 210.448 89.6168C211.059 86.1823 210.536 82.772 210.766 79.3503C210.928 76.8095 210.851 74.2623 210.965 71.7191C211.066 69.4516 211.185 67.1854 211.321 64.9204L211.87 58.1289C212.004 56.3565 212.559 54.638 213.49 53.1164C213.575 52.9571 213.706 52.8264 213.865 52.7409C214.024 52.6555 214.205 52.6192 214.384 52.6368C214.563 52.6544 214.732 52.725 214.87 52.8395C215.008 52.9541 215.107 53.1074 215.157 53.2798C215.55 54.4321 215.874 55.6071 216.127 56.7989C216.258 57.781 216.317 58.7721 216.302 59.764L216.386 59.7722Z" fill="#3461FF"/>
<path id="Vector_4" d="M260.213 93.8898C259.985 94.3364 259.773 94.7909 259.517 95.2245L258.744 96.5236C258.46 96.9757 258.213 97.4506 258.008 97.9433C257.507 99.2765 257.055 100.633 256.532 101.955C256.023 103.284 255.507 104.61 254.944 105.913C254.252 107.52 253.534 109.114 252.762 110.683L250.45 115.39C250.173 115.866 249.81 116.287 249.379 116.631C248.978 116.993 248.204 116.982 247.288 116.769C245.953 116.457 244.791 115.579 244.794 114.797C244.813 114.318 244.984 113.857 245.283 113.479C246.533 111.728 247.425 109.75 247.908 107.659C248.048 107.076 248.11 106.43 248.537 106.001C249.882 104.621 250.359 102.816 251.383 101.281C252.152 100.144 252.669 98.8782 253.404 97.7215C254.705 95.6536 255.952 93.5618 257.326 91.5295C257.881 90.68 258.686 90.0217 259.629 89.6456C259.745 89.6015 259.87 89.5833 259.993 89.5923C260.117 89.6012 260.237 89.6371 260.345 89.6974C260.453 89.7576 260.547 89.8409 260.619 89.9412C260.691 90.0415 260.74 90.1566 260.763 90.2783C260.778 90.6247 260.78 90.9734 260.77 91.3197C260.768 91.6597 260.736 91.9991 260.675 92.3342C260.548 92.856 260.374 93.3656 260.154 93.8564L260.213 93.8898Z" fill="#345FFF"/>
<path id="Vector_5" d="M109.03 197.758C110.217 197.585 111.404 197.424 112.59 197.276C113.22 197.213 113.846 197.112 114.465 196.975C116.094 196.537 117.73 196.117 119.376 195.727C121.024 195.344 122.684 195.024 124.357 194.768C126.418 194.473 128.489 194.241 130.566 194.096C132.642 193.95 134.722 193.861 136.803 193.829C137.448 193.848 138.084 193.977 138.684 194.208C139.276 194.401 139.654 195.074 139.878 195.957C140.203 197.243 139.842 198.622 139.036 198.953C138.525 199.138 137.975 199.188 137.441 199.098C135.016 198.79 132.55 198.967 130.186 199.618C129.528 199.791 128.855 200.062 128.194 199.949C126.073 199.577 124.03 200.199 121.941 200.283C121.164 200.319 120.389 200.397 119.619 200.517C118.847 200.62 118.079 200.746 117.305 200.841C114.546 201.18 111.777 201.545 109.022 202.038C107.857 202.209 106.671 202.002 105.639 201.449C105.124 201.223 104.988 200.654 105.348 200.051L105.764 199.497C105.824 199.407 105.901 199.331 105.991 199.271L106.232 199.089C106.553 198.852 106.888 198.635 107.235 198.438C107.515 198.282 107.81 198.156 108.116 198.063C108.425 197.984 108.737 197.918 109.043 197.834L109.03 197.758Z" fill="#3461FF"/>
</g>
</svg>
